{"title":"Mr.Holmes.2015.WEB-DL.XviD.MP3-RARBG","uid":12563104,"size":1272404202,"categoryP":"video","categoryS":"movies","magnet":"?xt=urn:btih:8c785b1749a03681c4faab6e4dc2fa95360df94a&amp;dn=Mr.Holmes.2015.WEB-DL.XviD.MP3-RARBG&amp;tr=udp%3A%2F%2Ftracker.leechers-paradise.org%3A6969&amp;tr=udp%3A%2F%2Fzer0day.ch%3A1337&amp;tr=udp%3A%2F%2Fopen.demonii.com%3A1337&amp;tr=udp%3A%2F%2Ftracker.coppersurfer.tk%3A6969&amp;tr=udp%3A%2F%2Fexodus.desync.com%3A6969","seeders":0,"leechers":1,"uploader":null,"files":5,"time":1444741290,"description":"Video\r\nID                                       : 0\r\nFormat                                   : MPEG-4 Visual\r\nFormat profile                           :   \r\nFormat settings, BVOP                    : No\r\nFormat settings, QPel                    : No\r\nFormat settings, GMC                     : No warppoints\r\nFormat settings, Matrix                  : Default (H.263)\r\nCodec ID                                 : XVID\r\nCodec ID/Hint                            : XviD\r\nDuration                                 : 1h 44mn\r\nBit rate                                 : 1 425 Kbps\r\nWidth                                    : 720 pixels\r\nHeight                                   : 304 pixels\r\nDisplay aspect ratio                     : 2.40:1\r\nFrame rate                               : 23.976 fps\r\nColor space                              : YUV\r\nChroma subsampling                       : 4:2:0\r\nBit depth                                : 8 bits\r\nScan type                                : Progressive\r\nCompression mode                         : Lossy\r\nBits/(Pixel*Frame)                       : 0.271\r\nStream size                              : 1.04 GiB (87%)\r\nWriting library                          : Lavc56.13.100\r\n\r\nAudio\r\nID                                       : 1\r\nFormat                                   : MPEG Audio\r\nFormat version                           : Version 1\r\nFormat profile                           : Layer 3\r\nMode                                     : Joint stereo\r\nCodec ID                                 : 55\r\nCodec ID/Hint                            : MP3\r\nDuration                                 : 1h 44mn\r\nBit rate mode                            : Constant\r\nBit rate                                 : 192 Kbps\r\nChannel(s)                               : 2 channels\r\nSampling rate                            : 48.0 KHz\r\nCompression mode                         : Lossy\r\nStream size                              : 143 MiB (12%)\r\nAlignment                                : Aligned on interleaves\r\nInterleave, duration                     : 24 ms (0.58 video frame)\r\nInterleave, preload duration             : 504 ms\r\nWriting library                          : LAME3.99.5","torrent":{"xt":"urn:btih:8c785b1749a03681c4faab6e4dc2fa95360df94a","amp;dn":"Mr.Holmes.2015.WEB-DL.XviD.MP3-RARBG","amp;tr":["udp%3A%2F%2Ftracker.leechers-paradise.org%3A6969","udp%3A%2F%2Fzer0day.ch%3A1337","udp%3A%2F%2Fopen.demonii.com%3A1337","udp%3A%2F%2Ftracker.coppersurfer.tk%3A6969","udp%3A%2F%2Fexodus.desync.com%3A6969"],"infoHash":"8c785b1749a03681c4faab6e4dc2fa95360df94a","infoHashBuffer":{"type":"Buffer","data":[140,120,91,23,73,160,54,129,196,250,171,110,77,194,250,149,54,13,249,74]},"announce":[],"urlList":[]}}